<?xml version="1.0" encoding="utf-8"?>
<!-- Generator: Adobe Illustrator 23.0.0, SVG Export Plug-In . SVG Version: 6.00 Build 0)  -->
<svg version="1.1" xmlns="http://www.w3.org/2000/svg" xmlns:xlink="http://www.w3.org/1999/xlink" x="0px" y="0px"
	 viewBox="0 0 8192 8192" style="enable-background:new 0 0 8192 8192;" xml:space="preserve">
<style type="text/css">
	.st0{fill:url(#SVGID_1_);}
	.st1{fill:none;stroke:#000000;stroke-width:10;stroke-miterlimit:10;}
	.st2{fill:none;stroke:#000000;stroke-width:9;}
	.st3{fill:#231F20;}
</style>
<g id="Layer_3">
	<g>
		
			<linearGradient id="SVGID_1_" gradientUnits="userSpaceOnUse" x1="4504.7188" y1="2408.8" x2="4504.7188" y2="4329.2002" gradientTransform="matrix(0.5689 0 0 -0.5689 1533.031 6012.3022)">
			<stop  offset="0" style="stop-color:#FAFAFA"/>
			<stop  offset="1" style="stop-color:#E6E6FA"/>
		</linearGradient>
		<rect x="3789.4" y="3549.5" class="st0" width="612.7" height="1092.5"/>
	</g>
</g>
<g id="Layer_1">
	<g>
		<path class="st1" d="M4361.7,4557.4c-11.6-11.7-30.5-11.7-42.2,0l-42.8,42.8c-7,5.4-17.1,4.9-23.4-1.5c-6.9-6.9-6.9-18.2,0-25.2
			l48-48c10.1-11.7,9.6-29.4-1.5-40.6c-11.6-11.7-30.5-11.7-42.2,0l-53.3,53.3c-0.4,0.4-0.9,0.9-1.3,1.3l-42.5,42.5
			c-11.7,11.7-30.5,11.7-42.2,0c-11.7-11.6-11.7-30.5,0-42.2l13.8-13.8c5.1-5.9,4.9-14.7-0.7-20.3c-5.8-5.9-15.2-5.9-21.1,0
			l-78.2,78.2c-0.1,0.1-0.1,0.1-0.2,0.2l-8.8,8.8c-5.9,5.9-15.3,5.9-21.1,0c-5.9-5.8-5.9-15.2,0-21.1l0.7-0.7h-0.1l12.2-12.2
			c11.7-11.6,11.7-30.5,0-42.2c-11.6-11.7-30.5-11.7-42.2,0l-53.3,53.3c-0.6,0.6-1.3,1.3-1.8,2l-1.8,1.8
			c-19.2,19.2-50.3,19.2-69.3,0c-19.2-19.1-19.2-50.2,0-69.3l21.6-21.6c9.4-11.7,8.6-28.8-2.2-39.7c-11.6-11.7-30.5-11.7-42.2,0
			l-52.5,52.5h-140.9v165.2h310.2h2.1H4095v-0.1h184.7c4.9,1.3,10.1,1.3,15,0h16v-10.1l50.9-50.9
			C4373.3,4587.9,4373.3,4569,4361.7,4557.4z"/>
	</g>
	<path id="Rectangle-3_1_" class="st2" d="M3861.2,3578.1l83.2-83.2c18.2-18.2,47.8-18.2,65.9,0l0,0c18.2,18.2,18.2,47.8,0,65.9
		l-83.2,83.2c-18.2,18.2-47.8,18.2-65.9,0l0,0C3843,3625.9,3843,3596.4,3861.2,3578.1z"/>
</g>
<g id="Layer_2">
	<g>
		<path class="st3" d="M3995.6,3754.1h-103.5v-103.5h103.5V3754.1z M3892.6,3753.6h102.6v-102.6h-102.6V3753.6z"/>
		<path class="st3" d="M3969.7,3697.1c-3.7,0.3-6.8,1.6-9.2,3.9c-2.4,2.4-3.5,5.3-3.5,8.9c0,5.5,2.3,9.3,7.3,12.4
			c1.3,0.8,3,1.6,6,2.9c4.1,1.8,5.6,2.6,6.6,3.6c1.2,1.3,1.5,3.3,0.8,4.9c-0.1,0.3-0.5,0.8-0.9,1.2c-1.2,1.2-3,1.8-5.3,1.8
			c-3.8,0-6.7-1.6-9-5c-0.3-0.5-0.6-0.8-0.6-0.8c-0.1,0-7.6,4.3-7.7,4.5c-0.1,0.1,0,0.3,0.4,0.9c3,5,7.7,8,14,8.8
			c1.7,0.2,4.8,0.2,6.3,0c4-0.6,7-1.9,9.3-4.1c2.5-2.4,3.7-5.4,3.7-9.3c0-2.5-0.4-4.4-1.3-6.3c-0.6-1.3-1.3-2.2-2.3-3.3
			c-2.1-2.1-4.8-3.7-10.1-6c-4.1-1.7-5.4-2.5-6.3-3.4c-0.9-0.9-1.2-2-1.1-3.3c0.1-1.1,0.4-1.8,1-2.5c0.9-1,2-1.4,3.7-1.4
			c1.9,0,3.1,0.5,4.4,1.8c0.4,0.4,1,1.1,1.3,1.6c0.3,0.5,0.5,0.7,0.6,0.7c0.3-0.1,7.4-4.7,7.4-4.8c0,0-0.4-0.6-0.8-1.3
			c-0.9-1.4-2.7-3.2-3.8-4c-2.2-1.4-4.5-2.2-7.5-2.4C3971.4,3697,3971.2,3697,3969.7,3697.1z"/>
		<path class="st3" d="M3939.1,3715l0,17.4l-0.2,0.8c-0.3,1.1-0.6,1.7-1.2,2.3c-0.8,0.8-1.9,1.2-3.7,1.2c-2.5,0-4-1.1-5.8-4.1
			c-0.3-0.5-0.5-0.9-0.6-0.8c0,0-1.8,1.1-4,2.4l-3.9,2.4l0.3,0.6c1.8,3.5,4.8,6.2,8.5,7.4c3.9,1.3,8.9,1.2,12.5-0.3
			c4.4-1.8,7-5.4,7.6-10.9c0.1-0.6,0.1-6.7,0.1-18.3v-17.5h-4.8h-4.8L3939.1,3715z"/>
		<g>
			<path class="st3" d="M3839.1,3703.3v-107.5l53.7,53.7L3839.1,3703.3z M3841.4,3601.5v96.1l48.1-48.1L3841.4,3601.5z"/>
		</g>
		<g>
			<path class="st3" d="M3992.8,3549.4l-53.7-53.7h107.5L3992.8,3549.4z M3944.7,3498.1l48.1,48.1l48.1-48.1H3944.7z"/>
		</g>
		<g>
			<polygon class="st3" points="3942,3547.8 3942,3598.6 3891.1,3547.8 3942,3496.9 			"/>
			<path class="st3" d="M3943.2,3601.5l-53.7-53.7l53.7-53.7V3601.5z M3892.8,3547.8l48.1,48.1v-96.1L3892.8,3547.8z"/>
		</g>
		<g>
			<polygon class="st3" points="3941.9,3649.4 3891,3649.4 3941.9,3598.5 3992.8,3649.4 			"/>
			<path class="st3" d="M3995.6,3650.6h-107.5l53.7-53.7L3995.6,3650.6z M3893.8,3648.3h96.1l-48.1-48.1L3893.8,3648.3z"/>
		</g>
		<g>
			<polygon class="st3" points="3789.4,3802.1 3840.2,3802.1 3789.4,3853 3738.5,3802.1 			"/>
			<path class="st3" d="M3789.4,3854.7l-53.7-53.7h105.8v0.7v0.9L3789.4,3854.7z M3741.3,3803.3l48.1,48.1l48.1-48.1H3741.3z"/>
		</g>
		<g>
			<polygon class="st3" points="4043.7,3547.6 4043.7,3598.5 3992.8,3547.7 4043.7,3496.8 			"/>
			<path class="st3" d="M4044.9,3601.4l-53.7-53.7l52.5-52.5l0.6,0.6h0.7V3601.4z M3994.4,3547.7l48.1,48.1v-96.1L3994.4,3547.7z"/>
		</g>
		<g>
			<polygon class="st3" points="3891.2,3598.5 3840.3,3598.5 3891.2,3547.7 3942.1,3598.5 			"/>
			<path class="st3" d="M3944.9,3599.7h-107.5l53.7-53.7L3944.9,3599.7z M3843.1,3597.4h96.1l-48.1-48.1L3843.1,3597.4z"/>
		</g>
		<g>
			<polygon class="st3" points="3840.2,3649.4 3840.2,3700.3 3789.4,3649.4 3840.2,3598.5 			"/>
			<path class="st3" d="M3841.4,3703.2l-53.7-53.7l53.7-53.7V3703.2z M3791,3649.4l48.1,48.1v-96.1L3791,3649.4z"/>
		</g>
		<g>
			<polygon class="st3" points="3789.4,3700.3 3840.3,3700.3 3789.4,3751.2 3738.5,3700.3 			"/>
			<path class="st3" d="M3789.4,3752.9l-53.7-53.7h107.5L3789.4,3752.9z M3741.3,3701.5l48.1,48.1l48.1-48.1H3741.3z"/>
		</g>
		<g>
			<polygon class="st3" points="3891,3700.3 3891,3751.2 3840.1,3700.3 3891,3649.4 			"/>
			<path class="st3" d="M3892.2,3754.1l-53.7-53.7l53.7-53.7V3754.1z M3841.8,3700.3l48.1,48.1v-96.1L3841.8,3700.3z"/>
		</g>
		<g>
			<path class="st3" d="M3940.7,3601.5v-107.5l53.7,53.7L3940.7,3601.5z M3943.1,3499.8v96.1l48.1-48.1L3943.1,3499.8z"/>
		</g>
		<g>
			<path class="st3" d="M3788.4,3652.6v-107.5l53.7,53.7L3788.4,3652.6z M3790.7,3550.8v96.1l48.1-48.1L3790.7,3550.8z"/>
		</g>
		<g>
			<path class="st3" d="M3891.2,3651.2l-53.7-53.7h107.5L3891.2,3651.2z M3843.1,3599.8l48.1,48.1l48.1-48.1H3843.1z"/>
		</g>
		<g>
			<path class="st3" d="M3840.8,3803.2l-0.6,0.7l-52.5-52.5l53.7-53.7v105.1L3840.8,3803.2z M3791,3751.3l48.1,48.1v-96.1
				L3791,3751.3z"/>
		</g>
	</g>
	<g>
		<g>
			<path class="st3" d="M4406.2,4567.6l-76,76v-76L4406.2,4567.6z M4332.6,4637.9l68-68l-68,0V4637.9z"/>
		</g>
		<g>
			<path class="st3" d="M4260.6,4641.9l-76,0l76-76V4641.9z M4190.3,4639.6l68,0l0-68L4190.3,4639.6z"/>
		</g>
		<g>
			<polygon class="st3" points="4295.4,4532.8 4331.4,4496.8 4331.4,4568.8 4259.4,4568.8 			"/>
			<path class="st3" d="M4332.6,4570l-76,0l76-76V4570z M4262.3,4567.6l68,0v-68L4262.3,4567.6z"/>
		</g>
		<g>
			<polygon class="st3" points="4367.4,4460.8 4403.4,4496.8 4331.4,4496.8 4331.4,4424.8 			"/>
			<path class="st3" d="M4406.2,4498h-76l0-76L4406.2,4498z M4332.6,4495.6h68l-68-68L4332.6,4495.6z"/>
		</g>
		<g>
			<polygon class="st3" points="4151.4,4604.8 4187.4,4568.8 4187.4,4640.8 4115.5,4640.8 			"/>
			<path class="st3" d="M4188.6,4641.9l-76,0l76-76V4641.9z M4118.3,4639.6l68,0v-68L4118.3,4639.6z"/>
		</g>
		<g>
			<path class="st3" d="M4334.2,4495.6l-76,76v-76L4334.2,4495.6z M4260.6,4565.9l68-68l-68,0V4565.9z"/>
		</g>
		<g>
			<path class="st3" d="M4334.2,4567.6l-76,76l0-76L4334.2,4567.6z M4260.6,4637.9l68-68l-68,0L4260.6,4637.9z"/>
		</g>
		<g>
			<path class="st3" d="M4332.6,4642l-76,0l76-76L4332.6,4642z M4262.3,4639.6l68,0l0-68L4262.3,4639.6z"/>
		</g>
		<g>
			<path class="st3" d="M4262.3,4570h-76l0-76L4262.3,4570z M4188.7,4567.6l68,0l-68-68L4188.7,4567.6z"/>
		</g>
	</g>
</g>
</svg>
